<svg id="Layer_1" enable-background="new 0 0 64 64" viewBox="0 0 64 64" xmlns="http://www.w3.org/2000/svg" width="300" height="300" version="1.1" xmlns:xlink="http://www.w3.org/1999/xlink" xmlns:svgjs="http://svgjs.dev/svgjs"><g width="100%" height="100%" transform="matrix(1,0,0,1,0,0)"><g><g><path d="m26.435 33.821c0 .264.213.477.477.477h30.571c.264 0 .477-.213.477-.477v-21.009h1.246c.712 0 1.29-.578 1.29-1.29v-1.734c0-.712-.578-1.29-1.29-1.29h-34.017c-.712 0-1.29.578-1.29 1.29v1.734c0 .712.578 1.29 1.29 1.29h1.246v12.094h-2.511c-1.503-1.571-7.004-4.96-8.706-5.586-.029-.023-.06-.044-.092-.061l-.012.024c-.051-.017-.098-.03-.14-.04l-.014-.004c-.089-.021-.156-.028-.198-.012-.012.004-.023.007-.034.012h-3.881c-2.417 0-4.705.788-6.442 2.22-1.941 1.6-3.085 3.503-3.405 5.727v10.108c0 1.648 1.354 2.988 3.02 2.988.801 0 1.525-.315 2.066-.82v15.409c0 1.611 1.326 2.923 2.955 2.923h.391c1.039 0 1.951-.537 2.478-1.342.527.805 1.438 1.342 2.478 1.342h.326c1.629 0 2.955-1.312 2.955-2.923v-26.767l4.205 2.949c.08.057.176.087.274.087h4.289v2.681zm-1.582-22.299v-1.734c0-.185.151-.336.336-.336h34.017c.185 0 .336.151.336.336v1.734c0 .185-.151.336-.336.336h-1.705c-.007 0-.012-.004-.019-.004s-.012.003-.019.004h-30.532c-.007 0-.012-.004-.019-.004s-.012.003-.019.004h-1.705c-.184.001-.335-.15-.335-.336zm2.536 1.29h29.617v20.532h-29.617v-2.205h2.777c1.737 0 3.15-1.398 3.15-3.117 0-.834-.329-1.617-.925-2.206-.594-.587-1.384-.91-2.223-.91-.001 0-.001 0-.002 0h-2.777zm-9.924 13.984c-.146-.103-.337-.116-.494-.033-.158.082-.257.245-.257.423v27.685c0 1.086-.898 1.969-2.001 1.969h-.326c-1.103 0-2.001-.883-2.001-1.969v-16.353c0-.264-.213-.477-.477-.477s-.477.213-.477.477v16.353c0 1.086-.898 1.969-2.001 1.969h-.39c-1.103 0-2.001-.883-2.001-1.969v-17.577-10.172c0-.264-.213-.477-.477-.477s-.477.213-.477.477v10.172c0 1.122-.927 2.034-2.066 2.034s-2.066-.913-2.066-2.034l-.005-10.039c.279-1.913 1.311-3.616 3.063-5.059 1.566-1.291 3.638-2.002 5.835-2.002h4.015c1.677.853 7.052 3.775 8.483 5.495.091.108.225.171.367.171h6.454.002c.587 0 1.138.225 1.554.635.414.408.641.95.641 1.527 0 1.192-.986 2.163-2.196 2.163h-7.868z" fill="#415a9e" fill-opacity="1" data-original-color="#4d4d4dff" stroke="none" stroke-opacity="1"/></g><g><path d="m42.053 31.149c.047.015.096.022.144.022s.098-.007.144-.022c3.511-1.117 5.353-4.207 6.139-5.948.366-.812.552-1.686.552-2.598v-5.279c0-.254-.199-.464-.453-.476-3.016-.153-4.377-1.663-4.403-1.693-.091-.106-.224-.167-.362-.167h-3.234c-.138 0-.271.061-.361.166-.014.016-1.372 1.54-4.404 1.693-.253.012-.453.222-.453.476v5.279c0 .912.186 1.786.552 2.597.786 1.743 2.629 4.833 6.139 5.95zm-5.737-13.382c2.594-.245 4.011-1.388 4.466-1.825h2.833c.455.437 1.871 1.58 4.466 1.825v4.835c0 .775-.157 1.517-.469 2.206-.709 1.572-2.349 4.341-5.414 5.384-3.064-1.043-4.704-3.812-5.413-5.385-.311-.687-.469-1.43-.469-2.205z" fill="#415a9e" fill-opacity="1" data-original-color="#4d4d4dff" stroke="none" stroke-opacity="1"/></g><g><path d="m40.837 25.386c.093.093.215.14.337.14s.244-.047.337-.14l3.938-3.938c.093-.093.14-.215.14-.337s-.047-.244-.14-.337c-.186-.186-.488-.186-.674 0l-3.601 3.601-1.554-1.555c-.186-.186-.488-.186-.674 0-.093.093-.14.215-.14.337s.047.244.14.337z" fill="#415a9e" fill-opacity="1" data-original-color="#4d4d4dff" stroke="none" stroke-opacity="1"/></g><g><path d="m58.172 45.027c1.055-.687 1.757-1.872 1.757-3.222 0-2.122-1.727-3.848-3.849-3.848s-3.848 1.726-3.848 3.848c0 1.344.695 2.526 1.742 3.214-1.987.629-3.582 2.138-4.337 4.067-.754-1.921-2.348-3.426-4.351-4.059 1.055-.687 1.757-1.872 1.757-3.222 0-2.122-1.726-3.848-3.848-3.848s-3.848 1.726-3.848 3.848c0 1.344.695 2.525 1.742 3.214-1.988.629-3.583 2.138-4.338 4.067-.754-1.921-2.348-3.426-4.351-4.059 1.055-.687 1.757-1.872 1.757-3.222 0-2.122-1.726-3.848-3.848-3.848s-3.848 1.726-3.848 3.848c0 1.344.695 2.525 1.742 3.214-2.787.881-4.814 3.491-4.814 6.566v1.981c0 .264.213.477.477.477h12.885 12.886 12.885c.264 0 .477-.213.477-.477v-1.981c.001-3.067-2.016-5.67-4.827-6.558zm-4.986-3.222c0-1.596 1.298-2.894 2.894-2.894 1.597 0 2.895 1.299 2.895 2.894s-1.298 2.894-2.895 2.894c-1.596 0-2.894-1.298-2.894-2.894zm-12.885 0c0-1.596 1.298-2.894 2.894-2.894s2.894 1.299 2.894 2.894-1.298 2.894-2.894 2.894-2.894-1.298-2.894-2.894zm-12.886 0c0-1.596 1.298-2.894 2.894-2.894s2.894 1.299 2.894 2.894-1.299 2.894-2.894 2.894-2.894-1.298-2.894-2.894zm-3.072 9.78c0-3.27 2.661-5.932 6-5.932 3.27 0 5.932 2.661 5.932 5.932v1.504h-11.932zm12.885 0c0-3.27 2.661-5.932 6.001-5.932 3.27 0 5.932 2.661 5.932 5.932v1.504h-11.933zm24.818 1.504h-11.931v-1.504c0-3.27 2.661-5.932 6-5.932 3.27 0 5.932 2.661 5.932 5.932v1.504z" fill="#415a9e" fill-opacity="1" data-original-color="#4d4d4dff" stroke="none" stroke-opacity="1"/></g><g><path d="m11.127 16.549c2.851 0 5.172-2.32 5.172-5.172s-2.32-5.172-5.172-5.172-5.172 2.32-5.172 5.172 2.321 5.172 5.172 5.172zm0-9.39c2.326 0 4.218 1.892 4.218 4.218s-1.892 4.218-4.218 4.218-4.218-1.892-4.218-4.218 1.892-4.218 4.218-4.218z" fill="#415a9e" fill-opacity="1" data-original-color="#4d4d4dff" stroke="none" stroke-opacity="1"/></g></g></g></svg>