<svg xmlns="http://www.w3.org/2000/svg" id="Layer_1" data-name="Layer 1" viewBox="0 0 512 512" width="300" height="300" version="1.1" xmlns:xlink="http://www.w3.org/1999/xlink" xmlns:svgjs="http://svgjs.dev/svgjs"><g width="100%" height="100%" transform="matrix(1,0,0,1,0,0)"><path d="M485.778,89.718H110.44c-27.759,0-55.877,42.86-74.577,78.816C16.423,205.909,0,250.157,0,265.156v86.968a26.25,26.25,0,0,0,26.221,26.221H60.73a50.929,50.929,0,0,0,100.893,0H339.038a50.929,50.929,0,0,0,100.893,0h45.847A26.251,26.251,0,0,0,512,352.124V115.94A26.252,26.252,0,0,0,485.778,89.718ZM14,315.643H37.617V341.21H14Zm97.173,92.635A36.977,36.977,0,0,1,74.341,373.92a6.94,6.94,0,0,0,0-5.153,36.931,36.931,0,1,1,36.836,39.511Zm278.307,0a36.97,36.97,0,0,1-36.916-36.206,7.012,7.012,0,0,0,0-1.458,36.924,36.924,0,0,1,73.83-.159,6.3,6.3,0,0,0,0,1.777A36.971,36.971,0,0,1,389.484,408.278ZM498,352.124a12.231,12.231,0,0,1-12.218,12.217H439.931a50.929,50.929,0,0,0-100.893,0H161.623a50.929,50.929,0,0,0-100.893,0H26.221a12.228,12.228,0,0,1-11.806-9.127h30.2a7,7,0,0,0,7-7V308.641a7,7,0,0,0-7-7H14V265.156C14,255.27,27.359,215.232,48.286,175c23.212-44.629,46.446-71.273,62.154-71.273H485.778A12.231,12.231,0,0,1,498,115.94ZM209.086,113.105H112.339a6.963,6.963,0,0,0-.957.066c-7.934,1.095-18.935,13.519-23.305,18.82-9.924,12.088-19.465,27.182-30.033,47.514A473.22,473.22,0,0,0,34.676,232.15c-.8,2.173-1.916,5.2-3.117,8.577a7,7,0,0,0,6.6,9.35h170.93a7,7,0,0,0,7-7V120.107A7,7,0,0,0,209.086,113.105Zm-7,122.968H48.158a459.642,459.642,0,0,1,22.317-50.12c10.1-19.437,19.134-33.76,28.416-45.066,5-6.064,11.778-12.519,14.419-13.778h88.774ZM479.656,113.105H233.124a7,7,0,0,0-7,7V243.075a7,7,0,0,0,7,7H479.656a7,7,0,0,0,7-7V120.107A7,7,0,0,0,479.656,113.105Zm-7,122.968H240.126V127.109H472.654Z" fill="#415a9e" fill-opacity="1" data-original-color="#000000ff" stroke="none" stroke-opacity="1"/></g></svg>